HIERARCHY
ROOT joint_Root
{
	OFFSET 0.0 0.0 0.0
	CHANNELS 6 Xposition Yposition Zposition Zrotation Xrotation Yrotation 
	JOINT Hips
	{
		OFFSET 4.5925 91.4895 -427.239
		CHANNELS 6 Xposition Yposition Zposition Zrotation Xrotation Yrotation 
		JOINT Spine
		{
			OFFSET 15.7357 0.0 0.0
			CHANNELS 6 Xposition Yposition Zposition Zrotation Xrotation Yrotation 
			JOINT Chest
			{
				OFFSET 8.98455 -0.406207 0.0
				CHANNELS 6 Xposition Yposition Zposition Zrotation Xrotation Yrotation 
				JOINT Neck
				{
					OFFSET 16.3773 0.0 0.0
					CHANNELS 6 Xposition Yposition Zposition Zrotation Xrotation Yrotation 
					JOINT Head
					{
						OFFSET 6.45672 0.0 0.0
						CHANNELS 6 Xposition Yposition Zposition Zrotation Xrotation Yrotation 
						End Site
						{
							OFFSET 0.0 0.0 0.0
						}
					}
				}
				JOINT Shoulder_L
				{
					OFFSET 12.9942 -0.242716 4.98039
					CHANNELS 6 Xposition Yposition Zposition Zrotation Xrotation Yrotation 
					JOINT UpperArm_L
					{
						OFFSET 5.34809 0.0 0.0
						CHANNELS 6 Xposition Yposition Zposition Zrotation Xrotation Yrotation 
						JOINT LowerArm_L
						{
							OFFSET 24.3286 1.87007e-05 0.0
							CHANNELS 6 Xposition Yposition Zposition Zrotation Xrotation Yrotation 
							JOINT Hand_L
							{
								OFFSET 22.2916 0.0 0.0
								CHANNELS 6 Xposition Yposition Zposition Zrotation Xrotation Yrotation 
								End Site
								{
									OFFSET 0.0 0.0 0.0
								}
							}
						}
					}
				}
				JOINT Shoulder_R
				{
					OFFSET 12.9945 -0.242716 -4.98039
					CHANNELS 6 Xposition Yposition Zposition Zrotation Xrotation Yrotation 
					JOINT UpperArm_R
					{
						OFFSET -5.34813 0.0 0.0
						CHANNELS 6 Xposition Yposition Zposition Zrotation Xrotation Yrotation 
						JOINT LowerArm_R
						{
							OFFSET -24.3289 0.000322201 0.0
							CHANNELS 6 Xposition Yposition Zposition Zrotation Xrotation Yrotation 
							JOINT Hand_R
							{
								OFFSET -22.2915 -0.000108084 0.0
								CHANNELS 6 Xposition Yposition Zposition Zrotation Xrotation Yrotation 
								End Site
								{
									OFFSET 0.0 0.0 0.0
								}
							}
						}
					}
				}
			}
		}
		JOINT UpperLeg_L
		{
			OFFSET -2.19248 -6.46944 0.0
			CHANNELS 6 Xposition Yposition Zposition Zrotation Xrotation Yrotation 
			JOINT LowerLeg_L
			{
				OFFSET 39.0811 0.0 -1.23785e-05
				CHANNELS 6 Xposition Yposition Zposition Zrotation Xrotation Yrotation 
				JOINT Foot_L
				{
					OFFSET 40.9854 0.0 -1.26872e-05
					CHANNELS 6 Xposition Yposition Zposition Zrotation Xrotation Yrotation 
					JOINT Toes_L
					{
						OFFSET 11.7543 0.0 0.0
						CHANNELS 6 Xposition Yposition Zposition Zrotation Xrotation Yrotation 
						End Site
						{
							OFFSET 0.0 0.0 0.0
						}
					}
				}
			}
		}
		JOINT UpperLeg_R
		{
			OFFSET -2.19251 6.46944 0.0
			CHANNELS 6 Xposition Yposition Zposition Zrotation Xrotation Yrotation 
			JOINT LowerLeg_R
			{
				OFFSET -39.0811 -0.00228153 -0.0401928
				CHANNELS 6 Xposition Yposition Zposition Zrotation Xrotation Yrotation 
				JOINT Foot_R
				{
					OFFSET -40.9854 0.0 0.0
					CHANNELS 6 Xposition Yposition Zposition Zrotation Xrotation Yrotation 
					JOINT Toes_R
					{
						OFFSET -11.7543 0.0 0.0
						CHANNELS 6 Xposition Yposition Zposition Zrotation Xrotation Yrotation 
						End Site
						{
							OFFSET 0.0 0.0 0.0
						}
					}
				}
			}
		}
	}
}
MOTION
Frames:	6
Frame Time:	0.0333333
0.000000 0.000000 0.000000 0.000000 0.000000 -0.000000 0.081025 91.524200 0.165813 89.476100 -7.252270 4.683920 15.735700 0.000005 -0.000001 82.783500 85.164400 -80.403400 8.984550 -0.406207 -0.000000 1.861240 -1.336680 4.777560 16.377300 -0.000001 -0.000001 4.238220 -1.728110 -4.588730 6.456720 -0.000001 -0.000000 -1.395420 -4.209280 -2.778760 12.994200 -0.242716 4.980390 -84.742500 -9.746820 -61.473900 5.348090 -0.000007 -0.000001 -36.454800 -61.495500 -80.161600 24.328600 0.000019 0.000005 12.756400 8.176730 -57.862600 22.291600 -0.000001 0.000005 25.470900 5.246870 1.516160 12.994500 -0.242716 -4.980390 88.075600 8.577890 -77.305100 -5.348130 -0.000001 -0.000004 -59.287300 21.743500 -7.008980 -24.328900 0.000322 -0.000009 0.491604 1.109880 -23.938000 -22.291500 -0.000108 -0.000004 15.549600 5.420590 -3.618840 -2.192480 -6.469440 -0.000000 -176.210000 -16.025300 -3.076060 39.081100 -0.000007 -0.000012 -0.121231 0.240481 26.753600 40.985400 -0.000006 -0.000013 0.841144 5.410730 -68.781500 11.754300 -0.000000 0.000003 -0.000032 -0.000381 -16.592400 -2.192510 6.469440 -0.000001 175.754000 19.415100 175.958000 -39.081100 -0.002282 -0.040193 -0.145427 0.296110 26.670500 -40.985400 0.000008 0.000006 3.345040 16.934800 -68.052200 -11.754300 -0.000006 -0.000006 -0.002339 -0.032885 -17.910300
0.000000 0.000000 0.000000 0.000000 0.000000 -0.000000 -0.014490 91.534500 0.269809 89.552300 -6.676000 4.636930 15.735700 0.000005 -0.000001 82.439500 85.203800 -80.142100 8.984550 -0.406207 -0.000000 1.775240 -1.381370 4.611970 16.377300 -0.000001 -0.000001 4.165830 -1.849450 -4.355930 6.456720 -0.000001 -0.000000 -1.240570 -4.097480 -2.685140 12.994200 -0.242716 4.980390 -85.169900 -9.131390 -61.966500 5.348090 -0.000007 -0.000001 -33.884600 -59.044500 -74.104100 24.328600 0.000019 0.000005 12.751600 6.699970 -62.730000 22.291600 -0.000001 0.000005 24.498000 5.238080 1.746090 12.994500 -0.242716 -4.980390 88.043100 8.588660 -77.112800 -5.348130 -0.000001 -0.000004 -59.585500 21.636400 -7.026300 -24.328900 0.000322 -0.000009 0.472756 1.075640 -23.776400 -22.291500 -0.000108 -0.000004 15.460600 5.418240 -3.539900 -2.192480 -6.469440 -0.000000 -176.237000 -15.746300 -3.044920 39.081100 -0.000007 -0.000012 -0.118973 0.237523 26.606000 40.985400 -0.000006 -0.000013 0.842660 5.721570 -68.733200 11.754300 -0.000000 0.000003 -0.000025 -0.000310 -16.589700 -2.192510 6.469440 -0.000001 175.649000 19.839400 176.139000 -39.081100 -0.002282 -0.040193 -0.151442 0.309739 26.547700 -40.985400 0.000008 0.000006 3.172200 16.836500 -68.077100 -11.754300 -0.000006 -0.000006 -0.002243 -0.031714 -17.862700
0.000000 0.000000 0.000000 0.000000 0.000000 -0.000000 -0.126587 91.549000 0.345113 89.626300 -6.062780 4.602850 15.735700 0.000005 -0.000001 82.181000 85.212400 -79.968700 8.984550 -0.406207 -0.000000 1.751800 -1.417900 4.442380 16.377300 -0.000001 -0.000001 3.936250 -1.978070 -3.997540 6.456720 -0.000001 -0.000000 -1.136110 -3.883690 -2.704670 12.994200 -0.242716 4.980390 -85.720100 -8.323450 -62.663000 5.348090 -0.000007 -0.000001 -31.080600 -55.542600 -66.701300 24.328600 0.000019 0.000005 12.539700 4.936530 -68.851900 22.291600 -0.000001 0.000005 23.537000 5.228460 1.996950 12.994500 -0.242716 -4.980390 88.000500 8.667170 -76.955900 -5.348130 -0.000001 -0.000004 -59.829600 21.664500 -7.029340 -24.328900 0.000322 -0.000009 0.378368 0.870627 -23.549000 -22.291500 -0.000108 -0.000004 15.468900 5.416430 -3.479120 -2.192480 -6.469440 -0.000000 -176.229000 -15.566100 -3.022490 39.081100 -0.000007 -0.000012 -0.119059 0.239280 26.453800 40.985400 -0.000006 -0.000013 0.854420 6.129280 -68.651500 11.754300 -0.000000 0.000003 -0.000028 -0.000340 -16.590900 -2.192510 6.469440 -0.000001 175.582000 20.308800 176.304000 -39.081100 -0.002282 -0.040193 -0.152609 0.313406 26.450300 -40.985400 0.000008 0.000006 3.191780 16.683700 -68.155100 -11.754300 -0.000006 -0.000006 -0.002157 -0.030659 -17.819800
0.000000 0.000000 0.000000 0.000000 0.000000 -0.000000 -0.246407 91.548500 0.419887 89.731900 -5.415510 4.648350 15.735700 0.000005 -0.000001 82.315100 85.200000 -80.206000 8.984550 -0.406207 -0.000000 1.777360 -1.393150 4.236050 16.377300 -0.000001 -0.000001 3.688750 -2.096930 -3.604380 6.456720 -0.000001 -0.000000 -1.102500 -3.762510 -2.658060 12.994200 -0.242716 4.980390 -86.333500 -7.407530 -63.572300 5.348090 -0.000007 -0.000001 -29.241800 -50.684500 -59.166600 24.328600 0.000019 0.000005 11.625300 3.042120 -75.544300 22.291600 -0.000001 0.000005 22.142500 5.228120 2.002130 12.994500 -0.242716 -4.980390 87.948900 8.811010 -76.840000 -5.348130 -0.000001 -0.000004 -60.056900 21.807700 -6.830670 -24.328900 0.000322 -0.000009 0.301009 0.700704 -23.321300 -22.291500 -0.000108 -0.000004 15.534200 5.414190 -3.404900 -2.192480 -6.469440 -0.000000 -176.231000 -15.301100 -2.959910 39.081100 -0.000007 -0.000012 -0.122591 0.247301 26.368400 40.985400 -0.000006 -0.000013 0.864088 6.545190 -68.600600 11.754300 -0.000000 0.000003 -0.000028 -0.000342 -16.590900 -2.192510 6.469440 -0.000001 175.446000 20.807900 176.508000 -39.081100 -0.002282 -0.040193 -0.155163 0.318417 26.459100 -40.985400 0.000008 0.000006 3.227890 16.532600 -68.293900 -11.754300 -0.000006 -0.000006 -0.002155 -0.030641 -17.819100
0.000000 0.000000 0.000000 0.000000 0.000000 -0.000000 -0.375499 91.542500 0.459656 89.789100 -4.750050 4.696330 15.735700 0.000005 -0.000001 83.019900 85.147700 -81.019100 8.984550 -0.406207 -0.000000 1.892510 -1.281080 4.019070 16.377300 -0.000001 -0.000001 3.278530 -2.301080 -2.977710 6.456720 -0.000001 -0.000000 -1.151630 -3.617350 -2.742510 12.994200 -0.242716 4.980390 -87.105800 -6.212820 -64.962900 5.348090 -0.000007 -0.000001 -27.512700 -44.751400 -51.257600 24.328600 0.000019 0.000005 10.805100 1.563920 -81.863700 22.291600 -0.000001 0.000005 21.249800 5.229650 1.964140 12.994500 -0.242716 -4.980390 87.904900 8.942160 -76.756400 -5.348130 -0.000001 -0.000004 -60.373300 22.063300 -6.661160 -24.328900 0.000322 -0.000009 0.270471 0.644388 -22.849400 -22.291500 -0.000108 -0.000004 15.543700 5.411400 -3.311680 -2.192480 -6.469440 -0.000000 -176.212000 -14.892500 -2.964970 39.081100 -0.000007 -0.000012 -0.123187 0.248498 26.368900 40.985400 -0.000006 -0.000013 0.835782 6.796040 -68.565400 11.754300 -0.000000 0.000003 -0.000042 -0.000483 -16.596400 -2.192510 6.469440 -0.000001 175.412000 21.137700 176.677000 -39.081100 -0.002282 -0.040193 -0.158776 0.325318 26.484300 -40.985400 0.000008 0.000006 3.236900 16.190300 -68.413000 -11.754300 -0.000006 -0.000006 -0.002030 -0.029094 -17.756100
0.000000 0.000000 0.000000 0.000000 0.000000 -0.000000 -0.495915 91.518400 0.490954 89.826900 -4.095480 4.819840 15.735700 0.000005 -0.000001 83.167300 85.017800 -81.299300 8.984550 -0.406207 -0.000000 2.151610 -1.276100 3.756460 16.377300 -0.000001 -0.000001 2.638540 -2.473580 -2.348470 6.456720 -0.000001 -0.000000 -1.195710 -3.400570 -2.604230 12.994200 -0.242716 4.980390 -87.999700 -4.516310 -66.083400 5.348090 -0.000007 -0.000001 -25.789200 -37.455200 -43.880100 24.328600 0.000019 0.000005 11.392400 0.704816 -86.504900 22.291600 -0.000001 0.000005 21.069200 5.229750 1.961810 12.994500 -0.242716 -4.980390 87.883700 9.010800 -76.724400 -5.348130 -0.000001 -0.000004 -60.747900 22.738500 -6.759130 -24.328900 0.000322 -0.000009 0.203309 0.504900 -22.035500 -22.291500 -0.000108 -0.000004 15.459700 5.411770 -3.324080 -2.192480 -6.469440 -0.000000 -176.191000 -14.309700 -2.980400 39.081100 -0.000007 -0.000012 -0.127238 0.255158 26.503800 40.985400 -0.000006 -0.000013 0.784999 6.892970 -68.583200 11.754300 -0.000000 0.000003 -0.000046 -0.000527 -16.598100 -2.192510 6.469440 -0.000001 175.362000 21.470300 176.873000 -39.081100 -0.002282 -0.040193 -0.160333 0.326672 26.608200 -40.985400 0.000008 0.000006 3.256790 15.863600 -68.575500 -11.754300 -0.000006 -0.000006 -0.001932 -0.027864 -17.706100
